HIERARCHY
ROOT Hips
{
	OFFSET 0.000000 1.471914 24.280096
	CHANNELS 6 Xposition Yposition Zposition Xrotation Yrotation Zrotation
	JOINT Spine
	{
		OFFSET 0.000000 0.900110 1.860670
		CHANNELS 6 Xposition Yposition Zposition Xrotation Yrotation Zrotation
		JOINT Spine1
		{
			OFFSET 0.000000 0.400320 2.270309
			CHANNELS 6 Xposition Yposition Zposition Xrotation Yrotation Zrotation
			JOINT Spine2
			{
				OFFSET 0.000000 0.200920 2.296560
				CHANNELS 6 Xposition Yposition Zposition Xrotation Yrotation Zrotation
				JOINT Spine3
				{
					OFFSET 0.000000 0.000000 2.305330
					CHANNELS 6 Xposition Yposition Zposition Xrotation Yrotation Zrotation
					JOINT Neck
					{
						OFFSET 0.000000 -0.864490 6.051487
						CHANNELS 6 Xposition Yposition Zposition Xrotation Yrotation Zrotation
						JOINT Head
						{
							OFFSET 0.000000 -0.550429 3.121674
							CHANNELS 6 Xposition Yposition Zposition Xrotation Yrotation Zrotation
							End Site
							{
								OFFSET 0.000000 0.000000 3.731750
							}
						}
					}
					JOINT RightShoulder
					{
						OFFSET -0.788280 -1.313800 4.256718
						CHANNELS 6 Xposition Yposition Zposition Xrotation Yrotation Zrotation
						JOINT RightArm
						{
							OFFSET -3.915130 0.000000 0.000000
							CHANNELS 6 Xposition Yposition Zposition Xrotation Yrotation Zrotation
							JOINT RightForeArm
							{
								OFFSET -6.914910 0.000000 0.000000
								CHANNELS 6 Xposition Yposition Zposition Xrotation Yrotation Zrotation
								JOINT RightHand
								{
									OFFSET -6.096219 0.000000 0.000000
									CHANNELS 6 Xposition Yposition Zposition Xrotation Yrotation Zrotation
									JOINT RightHandEnd
									{
										OFFSET -1.749950 0.000000 0.000000
										CHANNELS 6 Xposition Yposition Zposition Xrotation Yrotation Zrotation
										End Site
										{
											OFFSET -1.749950 0.000000 0.000000
										}
									}
									JOINT RightHandThumb1
									{
										OFFSET -0.699980 -1.166630 -0.466648
										CHANNELS 6 Xposition Yposition Zposition Xrotation Yrotation Zrotation
										End Site
										{
											OFFSET -1.690319 -0.452920 0.000000
										}
									}
								}
							}
						}
					}
					JOINT LeftShoulder
					{
						OFFSET 0.788280 -1.313800 4.256718
						CHANNELS 6 Xposition Yposition Zposition Xrotation Yrotation Zrotation
						JOINT LeftArm
						{
							OFFSET 3.915130 0.000000 0.000000
							CHANNELS 6 Xposition Yposition Zposition Xrotation Yrotation Zrotation
							JOINT LeftForeArm
							{
								OFFSET 6.914910 0.000000 0.000000
								CHANNELS 6 Xposition Yposition Zposition Xrotation Yrotation Zrotation
								JOINT LeftHand
								{
									OFFSET 6.096219 0.000000 0.000000
									CHANNELS 6 Xposition Yposition Zposition Xrotation Yrotation Zrotation
									JOINT LeftHandEnd
									{
										OFFSET 1.749950 0.000000 0.000000
										CHANNELS 6 Xposition Yposition Zposition Xrotation Yrotation Zrotation
										End Site
										{
											OFFSET 1.749950 0.000000 0.000000
										}
									}
									JOINT LeftHandThumb1
									{
										OFFSET 0.699980 -1.166630 -0.466648
										CHANNELS 6 Xposition Yposition Zposition Xrotation Yrotation Zrotation
										End Site
										{
											OFFSET 1.690319 -0.452920 0.000000
										}
									}
								}
							}
						}
					}
				}
			}
		}
	}
	JOINT RightUpLeg
	{
		OFFSET -2.338570 -0.252550 -0.551512
		CHANNELS 6 Xposition Yposition Zposition Xrotation Yrotation Zrotation
		JOINT RightLeg
		{
			OFFSET 0.000000 0.000000 -10.744959
			CHANNELS 6 Xposition Yposition Zposition Xrotation Yrotation Zrotation
			JOINT RightFoot
			{
				OFFSET 0.000000 -0.000001 -10.930849
				CHANNELS 6 Xposition Yposition Zposition Xrotation Yrotation Zrotation
				JOINT RightToeBase
				{
					OFFSET 0.000000 -4.087269 -1.487650
					CHANNELS 6 Xposition Yposition Zposition Xrotation Yrotation Zrotation
					End Site
					{
						OFFSET 0.000000 -1.891870 0.000000
					}
				}
			}
		}
	}
	JOINT LeftUpLeg
	{
		OFFSET 2.338570 -0.252550 -0.551512
		CHANNELS 6 Xposition Yposition Zposition Xrotation Yrotation Zrotation
		JOINT LeftLeg
		{
			OFFSET 0.000000 0.000000 -10.744959
			CHANNELS 6 Xposition Yposition Zposition Xrotation Yrotation Zrotation
			JOINT LeftFoot
			{
				OFFSET 0.000000 -0.000001 -10.930849
				CHANNELS 6 Xposition Yposition Zposition Xrotation Yrotation Zrotation
				JOINT LeftToeBase
				{
					OFFSET 0.000000 -4.087269 -1.487650
					CHANNELS 6 Xposition Yposition Zposition Xrotation Yrotation Zrotation
					End Site
					{
						OFFSET 0.000000 -1.891870 0.000000
					}
				}
			}
		}
	}
}
MOTION
Frames: 7
Frame Time: 0.041667
-0.000035 26.543930 40.013226 -17.010550 3.285647 -12.983630 -0.000017 0.900092 1.860703 34.528406 1.578341 -1.772780 0.000000 0.400275 2.270313 -0.000005 -0.000001 0.000005 0.000020 0.200866 2.296528 -0.000002 0.000000 0.000003 0.000028 -0.000004 2.305310 0.000019 0.000001 1.126672 -0.000009 -0.864478 6.051462 -3.455486 -7.258113 179.860451 0.000015 -0.550451 3.121727 -0.000000 0.000001 -0.000003 -0.788276 -1.313745 4.256767 -119.991971 48.429965 -65.139323 -3.915081 -0.000002 -0.000031 -0.000001 -0.000000 -0.000000 -6.914894 -0.000002 -0.000001 -0.000004 -0.000001 -25.565897 -6.096204 -0.000012 0.000015 -0.000028 0.000050 0.000003 -1.749917 -0.000017 0.000027 -0.000002 0.000004 0.000000 -0.699980 -1.166627 -0.466656 0.000004 0.000003 0.000006 0.788263 -1.313774 4.256730 -135.579036 -58.417187 47.058467 3.915182 0.000028 -0.000027 0.000000 -0.000001 0.000004 6.914904 -0.000028 -0.000004 0.000011 0.000004 22.565318 6.096213 0.000073 -0.000015 0.000022 -0.000067 -0.000052 1.749954 0.000009 0.000031 -0.000003 -0.000003 0.000000 0.699952 -1.166602 -0.466627 0.000021 -0.000008 -0.000020 -2.338572 -0.252537 -0.551507 26.519275 -4.747722 -1.405517 0.000015 -0.000018 -10.744974 5.681435 4.192298 -0.744975 -0.000021 0.000060 -10.930838 -0.000019 0.000001 0.000002 0.000001 -4.087266 -1.487645 -0.000001 0.000000 -0.000004 2.338571 -0.252535 -0.551458 23.753615 -2.132631 -1.266651 -0.000007 -0.000038 -10.744912 4.525505 -0.825061 -0.396522 -0.000011 0.000005 -10.930872 0.000014 -0.000000 0.000003 -0.000014 -4.087239 -1.487651 0.000005 0.000001 -0.000002 
-0.000034 26.543932 40.013222 -16.928865 3.239986 -12.920280 -0.000017 0.900098 1.860697 34.282809 1.238916 -1.721296 0.000001 0.400275 2.270312 -0.000006 -0.000001 0.000006 0.000019 0.200871 2.296524 -0.000002 -0.000000 0.000002 0.000027 -0.000006 2.305317 0.000021 0.000002 1.192658 -0.000009 -0.864478 6.051467 -3.098480 -6.737483 180.022449 0.000015 -0.550458 3.121727 -0.000001 0.000000 -0.000003 -0.788277 -1.313746 4.256770 -120.224116 48.854093 -64.500154 -3.915077 -0.000003 -0.000031 -0.000001 -0.000000 0.000000 -6.914905 -0.000002 -0.000001 -0.000007 -0.000002 -25.587046 -6.096206 -0.000011 0.000007 -0.000030 0.000050 0.000004 -1.749915 -0.000016 0.000027 -0.000002 -0.000001 0.000002 -0.699978 -1.166625 -0.466652 0.000006 -0.000001 0.000004 0.788265 -1.313775 4.256737 -137.247966 -59.104236 45.472917 3.915177 0.000023 -0.000031 0.000001 0.000001 0.000001 6.914906 -0.000028 0.000004 0.000010 0.000004 22.623868 6.096210 0.000071 -0.000015 0.000020 -0.000062 -0.000055 1.749961 0.000005 0.000032 -0.000003 -0.000002 -0.000000 0.699959 -1.166603 -0.466630 0.000021 -0.000009 -0.000020 -2.338573 -0.252533 -0.551509 26.296949 -4.703195 -1.362165 0.000015 -0.000018 -10.744968 5.684335 4.051144 -0.735193 -0.000021 0.000066 -10.930837 -0.000020 0.000000 0.000002 0.000001 -4.087261 -1.487643 0.000003 0.000001 -0.000002 2.338571 -0.252530 -0.551459 23.757495 -2.189783 -1.237592 -0.000006 -0.000038 -10.744919 4.466774 -0.698634 -0.390584 -0.000011 0.000001 -10.930873 0.000014 -0.000001 0.000002 -0.000013 -4.087238 -1.487651 0.000002 0.000001 -0.000002 
-0.000031 26.543928 40.013229 -16.936781 3.127368 -12.755365 -0.000018 0.900092 1.860702 34.355770 0.883662 -1.711282 0.000000 0.400276 2.270308 -0.000005 -0.000001 0.000006 0.000020 0.200874 2.296530 0.000001 0.000001 0.000003 0.000028 -0.000004 2.305321 0.000019 0.000002 1.310941 -0.000009 -0.864475 6.051471 -2.884214 -6.253804 179.942932 0.000016 -0.550452 3.121727 -0.000001 0.000000 -0.000002 -0.788277 -1.313746 4.256765 -120.639350 48.520585 -63.753853 -3.915078 -0.000002 -0.000035 0.000000 -0.000001 -0.000001 -6.914895 -0.000003 0.000002 -0.000004 -0.000004 -26.482380 -6.096208 -0.000009 0.000011 -0.000032 0.000050 0.000006 -1.749913 -0.000014 0.000023 -0.000002 0.000002 0.000000 -0.699977 -1.166624 -0.466656 0.000001 0.000002 0.000004 0.788262 -1.313771 4.256733 -138.163922 -59.125171 44.723088 3.915181 0.000023 -0.000027 0.000004 0.000001 0.000003 6.914906 -0.000028 -0.000003 0.000010 0.000005 23.287002 6.096223 0.000068 -0.000010 0.000029 -0.000067 -0.000054 1.749953 0.000005 0.000029 -0.000005 -0.000005 -0.000000 0.699951 -1.166608 -0.466626 0.000019 -0.000009 -0.000019 -2.338573 -0.252536 -0.551506 25.952841 -4.710288 -1.334958 0.000016 -0.000017 -10.744973 5.750499 4.505478 -0.742771 -0.000021 0.000063 -10.930837 -0.000017 0.000002 0.000002 0.000000 -4.087260 -1.487641 0.000000 0.000002 -0.000004 2.338571 -0.252536 -0.551459 23.660050 -1.924780 -1.222771 -0.000005 -0.000039 -10.744910 4.471810 -1.393857 -0.369097 -0.000011 0.000001 -10.930874 0.000012 -0.000001 0.000002 -0.000013 -4.087234 -1.487650 -0.000002 0.000000 -0.000002 
-0.000036 26.543926 40.013229 -16.896792 3.063394 -13.286186 -0.000017 0.900091 1.860707 34.089549 0.736763 -1.802022 0.000002 0.400273 2.270317 -0.000007 -0.000002 0.000004 0.000019 0.200867 2.296528 -0.000001 -0.000000 0.000002 0.000029 -0.000003 2.305317 0.000020 -0.000002 1.364142 -0.000009 -0.864477 6.051465 -2.638418 -5.847390 180.393834 0.000015 -0.550450 3.121723 -0.000003 -0.000000 -0.000001 -0.788274 -1.313744 4.256767 -120.745587 49.080701 -63.366540 -3.915082 0.000001 -0.000035 -0.000001 -0.000003 -0.000002 -6.914895 -0.000003 0.000002 -0.000004 -0.000002 -26.239649 -6.096208 -0.000010 0.000011 -0.000029 0.000050 0.000003 -1.749918 -0.000017 0.000027 -0.000001 0.000000 0.000005 -0.699977 -1.166627 -0.466652 0.000002 -0.000001 0.000008 0.788263 -1.313769 4.256733 -143.799729 -61.988290 39.724554 3.915183 0.000029 -0.000034 0.000002 -0.000000 0.000003 6.914909 -0.000030 -0.000004 0.000010 0.000004 22.895807 6.096219 0.000073 -0.000014 0.000028 -0.000064 -0.000056 1.749955 0.000005 0.000027 -0.000000 -0.000002 0.000001 0.699957 -1.166604 -0.466631 0.000017 -0.000007 -0.000019 -2.338573 -0.252536 -0.551507 25.777069 -4.090351 -1.405053 0.000014 -0.000016 -10.744966 5.881584 4.003411 -0.713699 -0.000021 0.000060 -10.930839 -0.000017 0.000000 0.000001 0.000001 -4.087258 -1.487640 0.000003 0.000001 -0.000003 2.338571 -0.252536 -0.551459 23.798966 -1.600127 -1.302915 -0.000006 -0.000037 -10.744910 4.574028 -1.229441 -0.364429 -0.000011 0.000002 -10.930872 0.000012 -0.000002 0.000001 -0.000013 -4.087241 -1.487650 -0.000002 0.000000 0.000001 
-0.000022 26.543924 40.013233 -16.712320 3.034934 -13.113845 -0.000017 0.900094 1.860706 34.026066 0.382560 -1.738604 0.000001 0.400269 2.270319 -0.000005 -0.000002 0.000004 0.000018 0.200870 2.296524 0.000000 -0.000001 0.000001 0.000028 -0.000010 2.305313 0.000020 0.000001 1.418597 -0.000010 -0.864470 6.051472 -2.286912 -5.853771 180.836690 0.000015 -0.550456 3.121723 -0.000000 0.000001 -0.000004 -0.788277 -1.313740 4.256771 -121.822189 50.804327 -62.143909 -3.915082 -0.000003 -0.000038 -0.000002 -0.000001 -0.000001 -6.914895 -0.000006 0.000002 -0.000002 -0.000002 -25.969791 -6.096203 -0.000009 0.000010 -0.000030 0.000048 0.000004 -1.749916 -0.000019 0.000031 0.000002 0.000001 0.000002 -0.699976 -1.166625 -0.466645 0.000004 -0.000003 0.000007 0.788260 -1.313768 4.256736 -145.690708 -61.920009 37.947025 3.915185 0.000023 -0.000027 0.000003 -0.000001 0.000003 6.914909 -0.000027 -0.000000 0.000009 0.000002 23.263351 6.096212 0.000069 -0.000012 0.000033 -0.000063 -0.000052 1.749951 0.000004 0.000028 -0.000003 -0.000002 0.000004 0.699950 -1.166606 -0.466630 0.000019 -0.000007 -0.000017 -2.338572 -0.252535 -0.551506 25.392845 -4.133744 -1.338408 0.000015 -0.000019 -10.744966 6.340734 3.937613 -0.764206 -0.000020 0.000062 -10.930840 -0.000020 0.000001 0.000000 0.000001 -4.087263 -1.487643 0.000002 0.000001 -0.000002 2.338572 -0.252532 -0.551459 23.387932 -1.906891 -1.238924 -0.000006 -0.000041 -10.744911 4.884920 -0.879581 -0.407514 -0.000012 0.000002 -10.930873 0.000014 -0.000001 0.000002 -0.000012 -4.087240 -1.487651 -0.000000 0.000001 -0.000004 
-0.000019 26.543924 40.013241 -16.457155 3.050422 -13.018007 -0.000017 0.900092 1.860693 33.759351 -0.093148 -1.615313 0.000001 0.400274 2.270315 -0.000004 -0.000002 0.000005 0.000019 0.200862 2.296532 0.000001 -0.000000 0.000002 0.000028 -0.000008 2.305317 0.000019 0.000000 1.513795 -0.000010 -0.864479 6.051465 -2.593108 -5.576581 180.494019 0.000015 -0.550452 3.121716 -0.000001 -0.000001 -0.000001 -0.788276 -1.313751 4.256771 -123.241201 52.315892 -60.846624 -3.915081 -0.000004 -0.000035 -0.000001 -0.000001 0.000000 -6.914896 -0.000004 0.000003 -0.000004 -0.000002 -25.528501 -6.096205 -0.000016 0.000015 -0.000030 0.000049 0.000005 -1.749911 -0.000016 0.000020 -0.000002 0.000003 0.000001 -0.699976 -1.166630 -0.466653 0.000004 -0.000000 0.000007 0.788263 -1.313776 4.256731 -149.743742 -62.672197 34.413136 3.915173 0.000024 -0.000030 0.000000 -0.000001 0.000005 6.914911 -0.000023 -0.000000 0.000004 0.000003 23.395773 6.096224 0.000068 -0.000009 0.000029 -0.000067 -0.000055 1.749954 0.000009 0.000027 -0.000003 -0.000001 -0.000000 0.699950 -1.166602 -0.466631 0.000019 -0.000006 -0.000019 -2.338573 -0.252537 -0.551514 25.014904 -4.097018 -1.233610 0.000016 -0.000018 -10.744971 6.578612 3.683247 -0.768877 -0.000020 0.000059 -10.930837 -0.000019 0.000001 0.000000 0.000001 -4.087264 -1.487643 0.000005 0.000001 -0.000004 2.338572 -0.252537 -0.551465 23.157784 -1.972809 -1.148136 -0.000006 -0.000039 -10.744914 4.905584 -0.919038 -0.399437 -0.000010 0.000003 -10.930874 0.000014 -0.000000 0.000003 -0.000012 -4.087240 -1.487651 0.000001 -0.000000 -0.000004 
-0.000012 26.543921 40.013241 -16.156369 3.111321 -12.916205 -0.000018 0.900100 1.860698 33.313216 -0.613023 -1.494024 0.000001 0.400275 2.270319 -0.000006 -0.000002 0.000006 0.000018 0.200869 2.296526 -0.000003 -0.000001 0.000002 0.000029 -0.000001 2.305317 0.000020 0.000001 1.432022 -0.000011 -0.864469 6.051476 -2.546520 -5.123686 180.584410 0.000015 -0.550450 3.121723 -0.000003 -0.000000 -0.000003 -0.788278 -1.313741 4.256773 -124.897481 54.117037 -58.865002 -3.915086 -0.000002 -0.000031 -0.000002 -0.000001 -0.000000 -6.914902 -0.000003 0.000003 -0.000004 -0.000001 -24.956470 -6.096209 -0.000015 0.000011 -0.000032 0.000049 0.000005 -1.749914 -0.000014 0.000030 0.000000 0.000003 -0.000002 -0.699975 -1.166623 -0.466653 0.000004 0.000002 0.000004 0.788259 -1.313766 4.256735 -150.792340 -61.285860 33.646755 3.915177 0.000024 -0.000027 0.000003 0.000000 0.000004 6.914905 -0.000027 -0.000004 0.000005 0.000004 24.011002 6.096216 0.000070 -0.000010 0.000022 -0.000066 -0.000053 1.749950 0.000009 0.000028 0.000002 0.000000 0.000000 0.699953 -1.166602 -0.466627 0.000021 -0.000007 -0.000020 -2.338573 -0.252531 -0.551515 24.559919 -4.207257 -1.134160 0.000016 -0.000020 -10.744967 6.752858 3.620826 -0.783263 -0.000022 0.000057 -10.930840 -0.000015 0.000001 0.000000 0.000001 -4.087259 -1.487642 0.000004 0.000001 -0.000003 2.338571 -0.252529 -0.551467 22.875383 -2.088881 -1.061861 -0.000007 -0.000038 -10.744910 4.852780 -1.345095 -0.391108 -0.000011 0.000001 -10.930869 0.000009 -0.000000 0.000003 -0.000013 -4.087244 -1.487652 -0.000003 -0.000001 -0.000001 
